/* XPM */
static char * close_pressed_xpm[] = {
"16 16 15 1",
" 	c None",
".	c #2D2D2D",
"+	c #536D97",
"@	c #475875",
"#	c #313439",
"$	c #485976",
"%	c #506890",
"&	c #353A43",
"*	c #516991",
"=	c #50678E",
"-	c #373D47",
";	c #51698D",
">	c #353941",
",	c #465774",
"'	c #303236",
"................",
"................",
"................",
"................",
"....+@#..#@+....",
"....$+%&&%+@....",
"....#*+==+%#....",
".....-*++=&.....",
".....-*++=&.....",
"....#*+;;+%#....",
"....$+=>>=+@....",
"....+,'..',+....",
"................",
"................",
"................",
"................"};
